<svg viewBox="-105.065 -346.5 1197 1193.659" width="1197" height="1193.659" xmlns="http://www.w3.org/2000/svg"><path d="M378.435-308.602c-19.317 4.225-25.018 7.089-36.857 18.517-14.398 13.898-31.472 36.866-40.012 53.825-15.354 30.49-22.63 66.439-22.62 111.76.006 25.35.945 30.207 9.761 50.5 6.895 15.871 13.038 32.461 12.149 32.812-.435.171-2.861-.391-5.391-1.25-6.369-2.163-14.279-2.013-18.143.344-7.854 4.789-10.049 19.389-5.084 33.827 3.364 9.783 6.663 15.134 14.369 23.302 8.521 9.033 16.285 13.087 24.585 12.838 3.212-.096 6.198.23 6.635.726 1.684 1.91 23.148 88.589 25.748 103.976 1.72 10.185 1.258 15.8-1.43 17.367-1.157.675 11.883 1.012 40.29 1.043 23.1.025 42.52.376 43.155.78 1.578 1.005 2.351 152.628.786 154.194-.725.725-17.127.978-52 .8l-50.941-.259-.176-75.843c-.097-41.713-.425-76.091-.73-76.396-1.324-1.325-62.52 15.488-82.094 22.555-41.155 14.857-82.631 35.03-117.743 57.265-16.052 10.165-34.394 24.524-38.825 30.393-13.819 18.303-28.181 71.198-35.848 132.026-3.327 26.392-4.379 45.461-3.807 69 .451 18.571.881 23.247 2.758 30 3.13 11.262 3.396 14.059 1.69 17.758-.931 2.018-1.749 8.15-2.168 16.242-.369 7.15-1.557 23.125-2.64 35.5-3.418 39.075-1.698 43.728 25.336 68.532 12.132 11.131 10.55 16.12-12.2 38.468-8.119 7.975-16.431 17.112-18.472 20.303C28.137 708.536 22.167 737.877 23.319 767c.671 16.94 2.055 25.475 6.095 37.576 4.673 13.996 13.098 26.67 23.459 35.293l4.354 6.048s28.583.425 28.549.287c-2.15-8.61.786-27.859 6.308-39.204 3.305-6.79 5.769-10.109 12.249-16.5 10.377-10.233 20.761-15.45 35.698-17.935 2.867-.477 4.958-2.113 10.308-8.068 11.293-12.568 24.826-21.405 32.886-21.473 10.364-.088 22.314 15.075 27.267 34.6 3.109 12.257 3.195 22.3.284 32.966-1.442 5.28-2.356 12.316-2.75 21.162l-.591 13.252s.478 1.476-.297 1.966c-.831.527 157.297-1.919 157.297-1.919V480.5l-5.666-1.346-5.667-1.346-.372-73.154c-.369-72.579-.356-73.169 1.666-75.008 1.122-1.02 5.808-5.295 10.415-9.5 13.089-11.949 11.299-11.975 23.49.335C394.03 326.267 399.104 331 399.576 331c.885-.001.744 141.784-.144 145.674-.399 1.744-1.533 2.338-5.747 3.009l-5.25.836-.242 183.74-.365 181.283 450.028-5.106c-8.843-8.608-12.694-19.049-10.347-28.059 3.099-11.898 8.446-19.936 30.713-46.169 17.249-20.321 25.148-31.533 30.724-43.61 3.791-8.211 5.103-13.051 11.542-42.598 1.978-9.075 6.705-28.945 10.505-44.156 8.059-32.261 10.36-45.077 9.499-52.899-1.816-16.489-9.693-36.477-18.973-48.143-8.773-11.03-28.854-26.218-46.33-35.042l-8.437-4.26.576-5.5c.8-7.646 4.896-40.978 8.477-69 10.762-84.191 11.777-116.338 4.597-145.5-2.022-8.212-8.596-21.297-12.957-25.787-6.185-6.368-30.175-21.389-50.51-31.625-22.768-11.462-26.263-12.898-55.488-22.801-37.407-12.677-62.748-19.451-105.512-28.205-36.444-7.46-38.465-7.99-44.627-11.7-7.539-4.541-41.58-28.962-52.873-37.933-14.761-11.725-23.5-22.329-23.5-28.513 0-2.484 8.954-25.754 13.134-34.134 1.563-3.133 4.535-8.366 6.604-11.628 2.069-3.262 4.272-6.773 4.895-7.802 1.087-1.797 1.236-1.777 3.691.497 2.25 2.084 2.935 2.236 5.703 1.272 15.703-5.475 40.13-38.466 46.988-63.464 2.124-7.741 1.792-10.771-1.415-12.912-2.594-1.732-7.581-.643-12.64 2.762-2.882 1.939-5.412 3.355-5.621 3.145-.21-.21.926-3.034 2.523-6.277 6.34-12.866 14.4-41.742 18.609-66.673 7.121-42.173 5.818-84.554-3.794-123.416-3.691-14.922-7.589-22.361-16.582-31.649-16.403-16.939-39.012-27.797-79.402-38.132-28.003-7.164-48.836-9.7-90.193-10.977-16.509-.51-18.911-.357-29 1.85M495.252-75.85c-6.191 6.664-4.871 11.823 4.183 16.35 5.576 2.788 6.778 3 17 3 9.396 0 11.755-.342 16.179-2.342 2.848-1.289 5.945-3.19 6.881-4.225 1.605-1.773 1.604-2.033-.006-4.491-2.403-3.667-7.243-5.414-21.054-7.598-21.203-3.354-20.726-3.339-23.183-.694m-113.817-.037c-8.242 1.193-16.089 3.775-18.047 5.939-2.594 2.866-.921 5.571 5.349 8.65 5.086 2.498 6.772 2.798 15.698 2.798 15.153 0 23.5-4.132 23.5-11.635 0-5.281-2.907-6.881-12.25-6.743-4.538.067-10.95.513-14.25.991m24.993 117.593c-11.981 2.721-13.414 4.968-11.493 18.014 1.917 13.02 5.773 18.606 16.648 24.115 6.46 3.273 18.193 6.165 25.01 6.165 13.311 0 31.523-3.747 41.811-8.602 6.012-2.837 7.67-4.093 9.768-7.398 1.943-3.061 6.01-23.192 5.143-25.453-.952-2.48-7.373-5.335-15.017-6.678-9.67-1.698-64.563-1.822-71.87-.163m201.52 155.482c-6.372 3.283-6.84 5.71-4.162 21.597 1.182 7.014 2.149 14.437 2.149 16.495 0 5.339 3.596 20.765 6.515 27.949 1.367 3.364 2.485 6.263 2.485 6.443 0 1.622-3.923-1.168-13.365-9.504-18.268-16.131-29.978-23.105-40.168-23.923-7.462-.599-12.103 1.466-18.228 8.112-8.185 8.879-7.077 12.026 9.408 26.731 13.879 12.381 14.475 13.668 4.592 9.911-6.181-2.349-15.785-2.633-20.626-.611-9.452 3.95-17.624 18.492-13.363 23.782 1.661 2.061 8.645 6.64 17.25 11.307 3.85 2.088 8.7 5.132 10.777 6.765l3.777 2.969-.277 14.077-.277 14.078-7.971 1.346c-10.202 1.721-17.006 5.452-21.208 11.629-5.959 8.758-5.379 21.409 1.125 24.538 1.734.835 9.222 1.754 18.96 2.327 13.877.816 18.606 1.146 24.161 1.69.587.057 1.875 3.591 2.862 7.854 7.929 34.243 27.854 73.346 47.007 92.253 17.546 17.321 27.838 19.91 53.695 13.513 28.896-7.15 43.481-22.585 35.723-37.806-2.042-4.007-14.508-17.124-25.417-26.745l-5.063-4.465-1.237-47c-1.59-60.463-1.485-59.633-8.995-70.505-3.232-4.678-6.141-9.853-6.466-11.5-.326-1.647-2.664-14.245-5.196-27.995-10.499-57-12.914-66.429-19.565-76.39-5.739-8.593-8.818-10.524-17.411-10.915-5.766-.262-7.797.09-11.491 1.993" fill="#fff" fill-rule="evenodd"/></svg>