<svg viewBox="-105.065 -346.5 1197 1193.659" width="1197" height="1193.659" xmlns="http://www.w3.org/2000/svg"><path d="M-105.065-345.995V844s306.238 3.759 312.198 3.076c2.841-.325.302-2.072.302-2.072l.591-13.252c.394-8.846 1.308-15.882 2.75-21.162 2.911-10.666 2.825-20.709-.284-32.966-4.953-19.525-16.903-34.688-27.267-34.6-8.06.068-21.593 8.905-32.886 21.473-5.35 5.955-7.441 7.591-10.308 8.068-14.937 2.485-25.321 7.702-35.698 17.935-6.48 6.391-8.944 9.71-12.249 16.5-5.522 11.345-19.371 29.209-11.598 33.49.146.08-8.4-12.731-27.613-.621-10.361-8.623-18.786-21.297-23.459-35.293-4.04-12.101-5.424-20.636-6.095-37.576-1.152-29.123 4.818-58.464 15.197-74.697 2.041-3.191 10.353-12.328 18.472-20.303 22.75-22.348 24.332-27.337 12.2-38.468-15.2-13.946-18.972-18.157-22.017-24.581-5.057-10.668-5.601-17.868-3.319-43.951 1.083-12.375 2.271-28.35 2.64-35.5.419-8.092 1.237-14.224 2.168-16.242 1.706-3.699 1.44-6.496-1.69-17.758-1.877-6.753-2.307-11.429-2.758-30-.572-23.539.48-42.608 3.807-69 7.667-60.828 22.029-113.723 35.848-132.026 4.431-5.869 22.773-20.228 38.825-30.393 35.112-22.235 76.588-42.408 117.743-57.265 19.574-7.067 80.77-23.88 82.094-22.555.305.305.633 34.683.73 76.396l.176 75.843 50.941.259c34.873.178 51.275-.075 52-.8 1.565-1.566.792-153.189-.786-154.194-.635-.404-20.055-.755-43.155-.78-28.407-.031-41.447-.368-40.29-1.043 2.688-1.567 3.15-7.182 1.43-17.367-2.6-15.387-24.064-102.066-25.748-103.976-.437-.496-3.423-.822-6.635-.726-8.3.249-16.064-3.805-24.585-12.838-7.706-8.168-11.005-13.519-14.369-23.302-4.965-14.438-2.77-29.038 5.084-33.827 3.864-2.357 11.774-2.507 18.143-.344 2.53.859 4.956 1.421 5.391 1.25.889-.351-5.254-16.941-12.149-32.812-8.816-20.293-9.755-25.15-9.761-50.5-.016-70.825 17.292-118.345 58.969-161.904 13.879-14.505 22.949-19.124 45.396-23.12 9.01-1.603 12.163-1.651 36-.546 28.689 1.33 42.214 2.799 61.208 6.645 23.5 4.759 55.144 14.8 69.916 22.184 15.269 7.634 31.954 23.036 37.422 34.547 3.745 7.882 7.259 21.379 10.726 41.194 4.761 27.214 4.291 66.838-1.177 99.222-4.209 24.931-12.269 53.807-18.609 66.673-1.597 3.243-2.733 6.067-2.523 6.277.209.21 2.739-1.206 5.621-3.145 5.059-3.405 10.046-4.494 12.64-2.762 3.207 2.141 3.539 5.171 1.415 12.912-6.858 24.998-31.285 57.989-46.988 63.464-2.768.964-3.453.812-5.703-1.272-2.455-2.274-2.604-2.294-3.691-.497-.623 1.029-2.826 4.54-4.895 7.802-2.069 3.262-5.041 8.495-6.604 11.628-4.18 8.38-13.134 31.65-13.134 34.134 0 6.184 8.739 16.788 23.5 28.513 11.293 8.971 45.334 33.392 52.873 37.933 6.162 3.71 8.183 4.24 44.627 11.7 42.764 8.754 68.105 15.528 105.512 28.205 29.225 9.903 32.72 11.339 55.488 22.801 20.335 10.236 44.325 25.257 50.51 31.625 4.361 4.49 10.935 17.575 12.957 25.787 7.18 29.162 6.165 61.309-4.597 145.5-3.581 28.022-7.677 61.354-8.477 69l-.576 5.5 8.437 4.26c17.476 8.824 37.557 24.012 46.33 35.042 9.28 11.666 17.157 31.654 18.973 48.143.861 7.822-1.44 20.638-9.499 52.899-3.8 15.211-8.527 35.081-10.505 44.156-6.439 29.547-7.751 34.387-11.542 42.598-5.576 12.077-13.475 23.289-30.724 43.61-22.267 26.233-27.614 34.271-30.713 46.169-2.347 9.01 1.504 19.451 10.347 28.059 0 0 253.257-.085 253.679-.346.422-.261.4-264.819.4-591.899V-346.5M495.252-75.85c-6.191 6.664-4.871 11.823 4.183 16.35 5.576 2.788 6.778 3 17 3 9.396 0 11.755-.342 16.179-2.342 2.848-1.289 5.945-3.19 6.881-4.225 1.605-1.773 1.604-2.033-.006-4.491-2.403-3.667-7.243-5.414-21.054-7.598-21.203-3.354-20.726-3.339-23.183-.694m-113.817-.037c-8.242 1.193-16.089 3.775-18.047 5.939-2.594 2.866-.921 5.571 5.349 8.65 5.086 2.498 6.772 2.798 15.698 2.798 15.153 0 23.5-4.132 23.5-11.635 0-5.281-2.907-6.881-12.25-6.743-4.538.067-10.95.513-14.25.991m24.993 117.593c-11.981 2.721-13.414 4.968-11.493 18.014 1.917 13.02 5.773 18.606 16.648 24.115 6.46 3.273 18.193 6.165 25.01 6.165 13.311 0 31.523-3.747 41.811-8.602 6.012-2.837 7.67-4.093 9.768-7.398 1.943-3.061 6.01-23.192 5.143-25.453-.952-2.48-7.373-5.335-15.017-6.678-9.67-1.698-64.563-1.822-71.87-.163m201.52 155.482c-6.372 3.283-6.84 5.71-4.162 21.597 1.182 7.014 2.149 14.437 2.149 16.495 0 5.339 3.596 20.765 6.515 27.949 1.367 3.364 2.485 6.263 2.485 6.443 0 1.622-3.923-1.168-13.365-9.504-18.268-16.131-29.978-23.105-40.168-23.923-7.462-.599-12.103 1.466-18.228 8.112-8.185 8.879-7.077 12.026 9.408 26.731 13.879 12.381 14.475 13.668 4.592 9.911-6.181-2.349-15.785-2.633-20.626-.611-9.452 3.95-17.624 18.492-13.363 23.782 1.661 2.061 8.645 6.64 17.25 11.307 3.85 2.088 8.7 5.132 10.777 6.765l3.777 2.969-.277 14.077-.277 14.078-7.971 1.346c-10.202 1.721-17.006 5.452-21.208 11.629-5.959 8.758-5.379 21.409 1.125 24.538 1.734.835 9.222 1.754 18.96 2.327 13.877.816 18.606 1.146 24.161 1.69.587.057 1.875 3.591 2.862 7.854 7.929 34.243 27.854 73.346 47.007 92.253 17.546 17.321 27.838 19.91 53.695 13.513 28.896-7.15 43.481-22.585 35.723-37.806-2.042-4.007-14.508-17.124-25.417-26.745l-5.063-4.465-1.237-47c-1.59-60.463-1.485-59.633-8.995-70.505-3.232-4.678-6.141-9.853-6.466-11.5-.326-1.647-2.664-14.245-5.196-27.995-10.499-57-12.914-66.429-19.565-76.39-5.739-8.593-8.818-10.524-17.411-10.915-5.766-.262-7.797.09-11.491 1.993m-232.684 114.17c-1.139.628-5.842 4.583-10.45 8.788s-9.296 8.48-10.418 9.5c-2.022 1.839-2.035 2.429-1.666 75.008l.372 73.154 5.667 1.346 5.666 1.346v364.551s23.225 1.01 23.409.458c.168-.504.216-81.392.349-182.024l.242-182.966 5.25-.836c4.214-.671 5.348-1.265 5.747-3.009.273-1.196.61-34.403.749-73.794l.254-71.62-3.734-2.683c-2.054-1.476-6.757-6.022-10.452-10.101-3.695-4.079-7.212-7.607-7.816-7.838-.604-.232-2.031.092-3.169.72" fill-rule="evenodd"/><path d="M378.435-308.602c-19.317 4.225-25.018 7.089-36.857 18.517-14.398 13.898-31.472 36.866-40.012 53.825-15.354 30.49-22.63 66.439-22.62 111.76.006 25.35.945 30.207 9.761 50.5 6.895 15.871 13.038 32.461 12.149 32.812-.435.171-2.861-.391-5.391-1.25-6.369-2.163-14.279-2.013-18.143.344-7.854 4.789-10.049 19.389-5.084 33.827 3.364 9.783 6.663 15.134 14.369 23.302 8.521 9.033 16.285 13.087 24.585 12.838 3.212-.096 6.198.23 6.635.726 1.684 1.91 23.148 88.589 25.748 103.976 1.72 10.185 1.258 15.8-1.43 17.367-1.157.675 11.883 1.012 40.29 1.043 23.1.025 42.52.376 43.155.78 1.578 1.005 2.351 152.628.786 154.194-.725.725-17.127.978-52 .8l-50.941-.259-.176-75.843c-.097-41.713-.425-76.091-.73-76.396-1.324-1.325-62.52 15.488-82.094 22.555-41.155 14.857-82.631 35.03-117.743 57.265-16.052 10.165-34.394 24.524-38.825 30.393-13.819 18.303-28.181 71.198-35.848 132.026-3.327 26.392-4.379 45.461-3.807 69 .451 18.571.881 23.247 2.758 30 3.13 11.262 3.396 14.059 1.69 17.758-.931 2.018-1.749 8.15-2.168 16.242-.369 7.15-1.557 23.125-2.64 35.5-3.418 39.075-1.698 43.728 25.336 68.532 12.132 11.131 10.55 16.12-12.2 38.468-8.119 7.975-16.431 17.112-18.472 20.303C28.137 708.536 22.167 737.877 23.319 767c.671 16.94 2.055 25.475 6.095 37.576 4.673 13.996 13.098 26.67 23.459 35.293l4.354 6.048s28.583.425 28.549.287c-2.15-8.61.786-27.859 6.308-39.204 3.305-6.79 5.769-10.109 12.249-16.5 10.377-10.233 20.761-15.45 35.698-17.935 2.867-.477 4.958-2.113 10.308-8.068 11.293-12.568 24.826-21.405 32.886-21.473 10.364-.088 22.314 15.075 27.267 34.6 3.109 12.257 3.195 22.3.284 32.966-1.442 5.28-2.356 12.316-2.75 21.162l-.591 13.252s.478 1.476-.297 1.966c-.831.527 157.297-1.919 157.297-1.919V480.5l-5.666-1.346-5.667-1.346-.372-73.154c-.369-72.579-.356-73.169 1.666-75.008 1.122-1.02 5.808-5.295 10.415-9.5 13.089-11.949 11.299-11.975 23.49.335C394.03 326.267 399.104 331 399.576 331c.885-.001.744 141.784-.144 145.674-.399 1.744-1.533 2.338-5.747 3.009l-5.25.836-.242 183.74-.365 181.283 450.028-5.106c-8.843-8.608-12.694-19.049-10.347-28.059 3.099-11.898 8.446-19.936 30.713-46.169 17.249-20.321 25.148-31.533 30.724-43.61 3.791-8.211 5.103-13.051 11.542-42.598 1.978-9.075 6.705-28.945 10.505-44.156 8.059-32.261 10.36-45.077 9.499-52.899-1.816-16.489-9.693-36.477-18.973-48.143-8.773-11.03-28.854-26.218-46.33-35.042l-8.437-4.26.576-5.5c.8-7.646 4.896-40.978 8.477-69 10.762-84.191 11.777-116.338 4.597-145.5-2.022-8.212-8.596-21.297-12.957-25.787-6.185-6.368-30.175-21.389-50.51-31.625-22.768-11.462-26.263-12.898-55.488-22.801-37.407-12.677-62.748-19.451-105.512-28.205-36.444-7.46-38.465-7.99-44.627-11.7-7.539-4.541-41.58-28.962-52.873-37.933-14.761-11.725-23.5-22.329-23.5-28.513 0-2.484 8.954-25.754 13.134-34.134 1.563-3.133 4.535-8.366 6.604-11.628 2.069-3.262 4.272-6.773 4.895-7.802 1.087-1.797 1.236-1.777 3.691.497 2.25 2.084 2.935 2.236 5.703 1.272 15.703-5.475 40.13-38.466 46.988-63.464 2.124-7.741 1.792-10.771-1.415-12.912-2.594-1.732-7.581-.643-12.64 2.762-2.882 1.939-5.412 3.355-5.621 3.145-.21-.21.926-3.034 2.523-6.277 6.34-12.866 14.4-41.742 18.609-66.673 7.121-42.173 5.818-84.554-3.794-123.416-3.691-14.922-7.589-22.361-16.582-31.649-16.403-16.939-39.012-27.797-79.402-38.132-28.003-7.164-48.836-9.7-90.193-10.977-16.509-.51-18.911-.357-29 1.85M495.252-75.85c-6.191 6.664-4.871 11.823 4.183 16.35 5.576 2.788 6.778 3 17 3 9.396 0 11.755-.342 16.179-2.342 2.848-1.289 5.945-3.19 6.881-4.225 1.605-1.773 1.604-2.033-.006-4.491-2.403-3.667-7.243-5.414-21.054-7.598-21.203-3.354-20.726-3.339-23.183-.694m-113.817-.037c-8.242 1.193-16.089 3.775-18.047 5.939-2.594 2.866-.921 5.571 5.349 8.65 5.086 2.498 6.772 2.798 15.698 2.798 15.153 0 23.5-4.132 23.5-11.635 0-5.281-2.907-6.881-12.25-6.743-4.538.067-10.95.513-14.25.991m24.993 117.593c-11.981 2.721-13.414 4.968-11.493 18.014 1.917 13.02 5.773 18.606 16.648 24.115 6.46 3.273 18.193 6.165 25.01 6.165 13.311 0 31.523-3.747 41.811-8.602 6.012-2.837 7.67-4.093 9.768-7.398 1.943-3.061 6.01-23.192 5.143-25.453-.952-2.48-7.373-5.335-15.017-6.678-9.67-1.698-64.563-1.822-71.87-.163m201.52 155.482c-6.372 3.283-6.84 5.71-4.162 21.597 1.182 7.014 2.149 14.437 2.149 16.495 0 5.339 3.596 20.765 6.515 27.949 1.367 3.364 2.485 6.263 2.485 6.443 0 1.622-3.923-1.168-13.365-9.504-18.268-16.131-29.978-23.105-40.168-23.923-7.462-.599-12.103 1.466-18.228 8.112-8.185 8.879-7.077 12.026 9.408 26.731 13.879 12.381 14.475 13.668 4.592 9.911-6.181-2.349-15.785-2.633-20.626-.611-9.452 3.95-17.624 18.492-13.363 23.782 1.661 2.061 8.645 6.64 17.25 11.307 3.85 2.088 8.7 5.132 10.777 6.765l3.777 2.969-.277 14.077-.277 14.078-7.971 1.346c-10.202 1.721-17.006 5.452-21.208 11.629-5.959 8.758-5.379 21.409 1.125 24.538 1.734.835 9.222 1.754 18.96 2.327 13.877.816 18.606 1.146 24.161 1.69.587.057 1.875 3.591 2.862 7.854 7.929 34.243 27.854 73.346 47.007 92.253 17.546 17.321 27.838 19.91 53.695 13.513 28.896-7.15 43.481-22.585 35.723-37.806-2.042-4.007-14.508-17.124-25.417-26.745l-5.063-4.465-1.237-47c-1.59-60.463-1.485-59.633-8.995-70.505-3.232-4.678-6.141-9.853-6.466-11.5-.326-1.647-2.664-14.245-5.196-27.995-10.499-57-12.914-66.429-19.565-76.39-5.739-8.593-8.818-10.524-17.411-10.915-5.766-.262-7.797.09-11.491 1.993" fill="#fff" fill-rule="evenodd"/></svg>